<?xml version="1.0" encoding="utf-8"?>
<!-- Generator: Adobe Illustrator 24.3.0, SVG Export Plug-In . SVG Version: 6.00 Build 0)  -->
<svg version="1.1"
	 id="Layer_1" xmlns:cc="http://creativecommons.org/ns#" xmlns:dc="http://purl.org/dc/elements/1.1/" xmlns:inkscape="http://www.inkscape.org/namespaces/inkscape" xmlns:rdf="http://www.w3.org/1999/02/22-rdf-syntax-ns#" xmlns:sodipodi="http://sodipodi.sourceforge.net/DTD/sodipodi-0.dtd" xmlns:svg="http://www.w3.org/2000/svg"
	 xmlns="http://www.w3.org/2000/svg" xmlns:xlink="http://www.w3.org/1999/xlink" x="0px" y="0px" viewBox="0 0 32 32"
	 style="enable-background:new 0 0 32 32;" xml:space="preserve">
<style type="text/css">
	.st0{fill:#FF4F1F;}
	.st1{fill:#444A52;}
</style>
<sodipodi:namedview  bordercolor="#666666" borderopacity="1" gridtolerance="10" guidetolerance="10" id="namedview142" inkscape:current-layer="layer5" inkscape:cx="7.7301587" inkscape:cy="16" inkscape:pageopacity="0" inkscape:pageshadow="2" inkscape:window-height="1395" inkscape:window-maximized="0" inkscape:window-width="2560" inkscape:window-x="0" inkscape:window-y="23" inkscape:zoom="31.5" objecttolerance="10" pagecolor="#ffffff" showgrid="true">
	<inkscape:grid  id="grid999" type="xygrid"></inkscape:grid>
</sodipodi:namedview>
<g id="g139" transform="matrix(0.97023404,0,0,0.9744669,0.93657278,0.8053551)">
	<path id="path131" class="st0" d="M14.2,16.2H7.6c-1.7,0-3.1-1.4-3.1-3.1c0,0,0,0,0,0V6.6c0-1.7,1.4-3.1,3.1-3.1h6.5
		c1.7,0,3.1,1.4,3.1,3.1v6.5C17.3,14.8,15.9,16.2,14.2,16.2C14.2,16.2,14.2,16.2,14.2,16.2z M7.6,5.4C7,5.4,6.4,5.9,6.4,6.6v6.5
		c0,0.7,0.5,1.2,1.2,1.2l0,0h6.5c0.7,0,1.2-0.5,1.2-1.2c0,0,0,0,0,0V6.6c0-0.7-0.5-1.2-1.2-1.2l0,0H7.6z"/>
	<g>
		<path class="st0" d="M24.4,8.9h-2.3v1.3c0,0.8-0.7,1.5-1.6,1.5h-1.4v2.5c0,1.1,0.9,2,2,2h3.3c1.1,0,2-0.9,2-2v-3.3
			C26.4,9.8,25.5,8.9,24.4,8.9z"/>
	</g>
	<path id="path135" class="st0" d="M14.9,26.9h-4.2c-1.3,0-2.3-1-2.3-2.3c0,0,0,0,0,0v-4.2c0-1.3,1-2.3,2.3-2.3c0,0,0,0,0,0h4.2
		c1.3,0,2.3,1,2.3,2.3l0,0v4.2C17.3,25.9,16.2,26.9,14.9,26.9z"/>
	<path id="path137" class="st0" d="M26.9,28.5h-5.1c-1.5,0-2.6-1.2-2.6-2.6v-5.1c0-1.5,1.2-2.6,2.6-2.6h5.1c1.5,0,2.6,1.2,2.6,2.6
		v5.1C29.5,27.3,28.3,28.5,26.9,28.5C26.9,28.5,26.9,28.5,26.9,28.5z"/>
</g>
<g id="layer4" inkscape:groupmode="layer" inkscape:label="base">
</g>
<path class="st1" d="M20.8,6.8h-0.9C19.8,6,19.6,4.7,19,3.7c-0.7-1.1-1.9-1.8-3.2-2c-0.8-0.1-1-0.1-1.5-0.1l-0.5,0l-5,0
	c-0.5,0-0.7,0-1.5,0.1C5.9,1.9,4.7,2.6,4,3.7C3.3,4.7,3.1,6,3,6.8H2.2C1.8,6.8,1.5,7,1.5,7.3v3.5c0,0.2,0.3,0.4,0.6,0.4h0.3l0,0.9
	c0,0.9,0.8,1.6,1.7,1.6c0,0,0,0,0,0l5.1,0l0,0.2l2,0l0-2l-2,0l0,0.2l-5.1,0c0,0,0,0,0,0C4,12.2,4,12.1,4,12l0-0.8h0
	c0.3,0,0.6-0.2,0.6-0.4V7.3c0-0.1,0-0.1-0.1-0.2c0-0.7,0.2-1.7,0.7-2.5c0.5-0.7,1.3-1.2,2.2-1.3c0.7-0.1,0.8-0.1,1.3-0.1l0.5,0l5,0
	c0.5,0,0.6,0,1.3,0.1c0.9,0.1,1.7,0.6,2.2,1.3c0.6,0.8,0.7,2,0.7,2.6c0,0,0,0.1,0,0.1v3.5c0,0.2,0.3,0.4,0.6,0.4h1.7
	c0.3,0,0.6-0.2,0.6-0.4V7.3C21.4,7,21.1,6.8,20.8,6.8z"/>
</svg>
