<?xml version="1.0" encoding="UTF-8" standalone="no"?>
<svg
   xmlns:dc="http://purl.org/dc/elements/1.1/"
   xmlns:cc="http://creativecommons.org/ns#"
   xmlns:rdf="http://www.w3.org/1999/02/22-rdf-syntax-ns#"
   xmlns:svg="http://www.w3.org/2000/svg"
   xmlns="http://www.w3.org/2000/svg"
   xmlns:sodipodi="http://sodipodi.sourceforge.net/DTD/sodipodi-0.dtd"
   xmlns:inkscape="http://www.inkscape.org/namespaces/inkscape"
   height="408.69421"
   inkscape:version="1.0 (4035a4f, 2020-05-01)"
   sodipodi:docname="sabohc-logo-2.svg"
   xml:space="preserve"
   enable-background="new 0 0 438 560"
   viewBox="0 0 384.92413 408.69421"
   width="384.92413"
   y="0px"
   x="0px"
   id="Layer_1"
   version="1.1"><metadata
   id="metadata342"><rdf:RDF><cc:Work
       rdf:about=""><dc:format>image/svg+xml</dc:format><dc:type
         rdf:resource="http://purl.org/dc/dcmitype/StillImage" /><dc:title></dc:title></cc:Work></rdf:RDF></metadata><defs
   id="defs340" /><sodipodi:namedview
   inkscape:current-layer="Layer_1"
   inkscape:window-maximized="0"
   inkscape:window-y="0"
   inkscape:window-x="0"
   inkscape:cy="24.999997"
   inkscape:cx="23.546008"
   inkscape:zoom="16.840003"
   showgrid="false"
   id="namedview338"
   inkscape:window-height="1050"
   inkscape:window-width="1680"
   inkscape:pageshadow="2"
   inkscape:pageopacity="0"
   guidetolerance="10"
   gridtolerance="10"
   objecttolerance="10"
   borderopacity="1"
   bordercolor="#666666"
   pagecolor="#ffffff" />








































<g
   transform="translate(-168.91605,-179.34714)"
   id="g730"><path
     fill="#00adb5"
     opacity="1"
     stroke="none"
     d="m 189.0855,181.37943 c 0.95262,-0.62845 1.86723,-1.23192 2.78165,-1.83572 0.37957,-0.25064 0.78298,-0.2652 1.15069,-0.0229 2.26064,1.48984 4.52607,2.97173 6.73797,4.54387 0.79257,0.56332 1.21866,1.30286 1.1536,2.33477 -0.009,0.14741 0.0219,0.29771 0.0398,0.51194 1.16978,-0.38266 2.30856,-0.75218 3.4456,-1.1277 3.44344,-1.13724 6.88606,-2.2773 10.32937,-3.41499 0.52269,-0.1727 1.08162,0.07 1.20998,0.51904 0.20146,0.7048 -0.0111,1.26272 -0.6114,1.47078 -1.59857,0.55409 -3.20265,1.09045 -4.80767,1.62317 -3.11437,1.03368 -6.23175,2.05708 -9.34569,3.0922 -0.54352,0.18068 -1.07848,0.38608 -1.66147,0.33237 -0.30425,-0.0281 -0.464,0.0989 -0.4368,0.44392 0.0102,0.12911 1.2e-4,0.25997 -1.2e-4,0.39004 -0.002,1.08088 -0.001,1.06172 1.02914,1.12316 0.79814,0.0476 1.5237,0.42933 2.27431,0.67423 4.22177,1.37742 8.43121,2.79762 12.64487,4.20317 0.0969,0.0323 0.19743,0.0556 0.29046,0.0977 0.5438,0.24583 0.79146,0.8262 0.59537,1.38564 -0.17347,0.49487 -0.66522,0.76325 -1.19742,0.59235 -1.72498,-0.55392 -3.44369,-1.12991 -5.16496,-1.69691 -2.68987,-0.88607 -5.384,-1.75797 -8.06622,-2.6695 -0.51952,-0.17655 -0.61096,0.005 -0.57132,0.48256 0.11359,1.36772 -0.47041,2.27841 -1.64729,2.77246 -0.31392,0.13178 -0.2923,0.30548 -0.22696,0.60449 0.72774,3.33035 1.43403,6.666 2.15285,9.99859 0.47835,2.21771 0.90789,4.45003 1.46879,6.64415 0.55526,2.17203 0.87508,4.39911 1.44358,6.563 0.60868,2.31679 0.9501,4.6964 1.52687,7.0197 0.1913,0.77059 -0.2658,1.30784 -1.08527,1.30923 -2.79281,0.005 -5.58563,0.002 -8.37845,0.002 -5.17792,3e-5 -10.35585,2.4e-4 -15.53378,-2.5e-4 -1.17149,-1.1e-4 -1.50448,-0.4461 -1.24869,-1.63641 0.62137,-2.89146 1.18919,-5.79701 1.8664,-8.67351 0.55494,-2.35712 1.04797,-4.72812 1.56848,-7.09297 0.58962,-2.67886 1.18554,-5.35618 1.76994,-8.03634 0.44246,-2.02919 0.86087,-4.0644 1.3159,-6.09035 0.0769,-0.34226 0.0508,-0.48213 -0.27766,-0.62906 -1.07511,-0.48086 -1.67043,-1.3116 -1.60496,-2.61835 0.0399,-0.79576 0.005,-0.79674 -0.66988,-0.57458 -4.3338,1.42709 -8.66648,2.85806 -13.00296,4.27587 -0.67039,0.21919 -1.17588,-0.0339 -1.33709,-0.60035 -0.17541,-0.61647 0.11035,-1.15332 0.7852,-1.37837 4.30968,-1.43718 8.62257,-2.86347 12.93399,-4.29476 0.54209,-0.17996 1.08038,-0.37295 1.62317,-0.55042 0.2307,-0.0754 0.46841,-0.17867 0.70305,-0.17901 0.80741,-0.001 0.80742,0.014 0.80766,-0.85317 2.4e-4,-0.95708 -0.003,-0.92224 -0.88383,-1.02107 -0.80873,-0.0908 -1.55954,-0.4515 -2.33173,-0.70615 -4.25636,-1.40359 -8.50969,-2.81765 -12.76462,-4.22621 -0.84224,-0.27882 -1.10802,-0.73177 -0.88839,-1.53445 0.13549,-0.49513 0.76417,-0.70657 1.45825,-0.47717 3.84936,1.27225 7.69785,2.54744 11.5465,3.82211 0.5217,0.17278 1.04267,0.34804 1.56387,0.52248 0.29294,0.0981 0.51393,0.10961 0.46689,-0.34192 -0.12585,-1.20816 0.56015,-1.94397 1.39277,-2.54434 1.19327,-0.86042 2.41817,-1.67125 3.66765,-2.52807 z"
     id="path223"
     style="stroke-width:0.126162" /><path
     fill="#46704D"
     opacity="1"
     stroke="none"
     d="m 187.69994,217.52193 c 3.91771,-2.06379 7.79822,-4.0984 11.66315,-6.16598 0.45763,-0.24481 0.58448,-0.11605 0.67883,0.33141 0.22105,1.04827 0.43452,2.09936 0.69593,3.13652 0.11742,0.46586 -0.15974,0.56571 -0.4318,0.70882 -2.69046,1.41534 -5.38192,2.82856 -8.07269,4.24325 -3.24353,1.70531 -6.48607,3.41278 -9.73185,5.11324 -0.15479,0.0811 -0.30048,0.22209 -0.54749,0.16972 0.36098,-1.60686 0.73069,-3.20734 1.07287,-4.81444 0.0673,-0.316 0.27621,-0.40485 0.4888,-0.51755 1.37951,-0.73131 2.76131,-1.4577 4.18425,-2.20499 z"
     id="path285"
     style="fill:#ffffff;stroke-width:0.126162" /><path
     fill="#46704D"
     opacity="1"
     stroke="none"
     d="m 192.74191,226.51119 c -0.92353,0.64345 -1.8888,0.79779 -2.94214,0.77174 -2.34245,-0.0579 -4.68704,-0.018 -7.04185,-0.018 -8e-5,-0.26273 0.2062,-0.25972 0.32683,-0.32354 5.27969,-2.79349 10.5619,-5.58161 15.84562,-8.36646 0.63615,-0.33529 1.29199,-0.62947 1.9203,-0.98002 0.32273,-0.18007 0.46302,-0.13 0.54348,0.24851 0.22291,1.04878 0.45152,2.09658 0.70198,3.13822 0.11393,0.47383 -0.12219,0.6484 -0.46682,0.82952 -2.95246,1.55168 -5.89867,3.11682 -8.8874,4.7001 z"
     id="path287"
     style="fill:#ffffff;stroke-width:0.126162" /><path
     fill="#46704D"
     opacity="1"
     stroke="none"
     d="m 193.8588,207.28681 c 1.42367,-0.76075 2.81732,-1.47789 4.18582,-2.24573 0.4287,-0.24055 0.54943,-0.0814 0.633,0.32166 0.20891,1.00763 0.39219,2.0231 0.64924,3.01684 0.12696,0.4908 -0.0351,0.67614 -0.41589,0.87611 -4.39321,2.30675 -8.77907,4.62936 -13.16696,6.94759 -0.65096,0.34392 -1.30233,0.68699 -2.06976,1.09177 0.25965,-1.21535 0.57991,-2.30279 0.7073,-3.4152 0.1583,-1.38221 0.78844,-2.11836 2.00503,-2.68342 2.52734,-1.17384 4.96056,-2.57681 7.47222,-3.90962 z"
     id="path289"
     style="fill:#ffffff;stroke-width:0.126162" /><path
     fill="#46704D"
     opacity="1"
     stroke="none"
     d="m 195.41052,199.43489 c 0.4841,-0.23705 0.92814,-0.44993 1.36658,-0.67512 0.23596,-0.12119 0.39463,-0.18085 0.47037,0.20108 0.22515,1.13534 0.47498,2.26549 0.73645,3.39208 0.0645,0.27808 0.0229,0.42431 -0.22704,0.55499 -4.06519,2.12553 -8.1264,4.25966 -12.18903,6.39073 -0.0163,0.009 -0.04,0.001 -0.13652,0.001 0.27542,-1.30371 0.61896,-2.57837 0.79573,-3.87865 0.1396,-1.02684 0.66041,-1.51826 1.48832,-1.93717 2.57011,-1.30042 5.1045,-2.68067 7.69514,-4.04899 z"
     id="path291"
     style="fill:#ffffff;stroke-width:0.126162" /><path
     fill="#47704C"
     opacity="1"
     stroke="none"
     d="m 194.4154,182.91094 c 1.41659,0.97161 2.8642,1.80568 4.17239,2.86883 0.30627,0.24889 0.49903,1.07207 0.32526,1.39117 -0.10421,0.19136 -0.28005,0.14894 -0.43387,0.14907 -4.00943,0.003 -8.01886,0.004 -12.02828,1.5e-4 -0.19261,-1.5e-4 -0.46042,0.05 -0.45321,-0.27468 0.01,-0.42793 -0.17011,-0.88744 0.28459,-1.24057 1.08357,-0.84154 2.25076,-1.54114 3.37278,-2.31671 0.79905,-0.55232 1.6162,-1.07498 2.41652,-1.62527 0.2654,-0.1825 0.48371,-0.22093 0.76512,-0.0121 0.49781,0.36937 1.02457,0.69465 1.5787,1.06013 z"
     id="path293"
     style="fill:#ffffff;stroke-width:0.126162" /><path
     fill="#47704C"
     opacity="1"
     stroke="none"
     d="m 197.17873,195.25857 c -3.51753,0.001 -6.97949,0.002 -10.44144,-0.002 -0.27296,-3.7e-4 -0.64233,0.0941 -0.71546,-0.30517 -0.0842,-0.46 -0.11618,-0.9486 0.0333,-1.4061 0.0495,-0.15147 0.25258,-0.10526 0.39074,-0.10533 4.01179,-0.002 8.02359,5e-4 12.03537,-0.007 0.3319,-5e-4 0.5012,0.10805 0.46848,0.48165 -0.0113,0.12878 -5e-4,0.25969 -5e-4,0.38962 -5e-4,0.93372 -0.11458,1.0606 -0.99633,0.93052 -0.25188,-0.0371 -0.47944,0.0198 -0.77385,0.0228 z"
     id="path295"
     style="fill:#ffffff;stroke-width:0.126162" /><path
     fill="#47704C"
     opacity="1"
     stroke="none"
     d="m 195.52146,191.3565 c -2.40565,-7e-5 -4.75049,-0.0131 -7.095,0.0105 -0.48352,0.005 -0.62728,-0.15249 -0.62147,-0.66254 0.0148,-1.29912 -0.007,-1.29943 1.23564,-1.29941 2.48744,5e-5 4.97498,0.0126 7.46223,-0.0105 0.4839,-0.004 0.62698,0.15316 0.62122,0.66275 -0.0147,1.2989 0.007,1.29918 -1.23586,1.29921 -0.10195,0 -0.20389,0 -0.36676,0 z"
     id="path297"
     style="fill:#ffffff;stroke-width:0.126162" /><path
     fill="#46704D"
     opacity="1"
     stroke="none"
     d="m 190.62945,197.3405 c 1.40454,-1e-5 2.74792,-1e-5 4.09129,-1e-5 0.0152,0.0411 0.0303,0.0823 0.0454,0.12344 -2.50242,1.33071 -5.00484,2.66142 -7.63314,4.05907 0.29655,-1.40574 0.55617,-2.68004 0.84047,-3.94807 0.0584,-0.26039 0.3135,-0.23254 0.51709,-0.233 0.69255,-0.002 1.3851,-0.001 2.13882,-0.002 z"
     id="path299"
     style="fill:#ffffff;stroke-width:0.126162" /><path
     fill="#46704D"
     opacity="1"
     stroke="none"
     d="m 203.34562,226.73324 c 0.0205,0.30171 0.10299,0.54388 -0.31096,0.54037 -2.3184,-0.0196 -4.63703,-0.009 -6.96204,-0.009 -0.006,-0.26779 0.20483,-0.26644 0.3261,-0.33119 1.90478,-1.01696 3.81971,-2.01253 5.71952,-3.0398 0.43221,-0.23371 0.58229,-0.17455 0.6717,0.3505 0.13979,0.82101 0.36309,1.62593 0.55568,2.48958 z"
     id="path301"
     style="fill:#ffffff;stroke-width:0.126162" /></g>

















</svg>
