<?xml version="1.0" encoding="UTF-8" standalone="no"?>
<svg
   xmlns:dc="http://purl.org/dc/elements/1.1/"
   xmlns:cc="http://creativecommons.org/ns#"
   xmlns:rdf="http://www.w3.org/1999/02/22-rdf-syntax-ns#"
   xmlns:svg="http://www.w3.org/2000/svg"
   xmlns="http://www.w3.org/2000/svg"
   xmlns:sodipodi="http://sodipodi.sourceforge.net/DTD/sodipodi-0.dtd"
   xmlns:inkscape="http://www.inkscape.org/namespaces/inkscape"
   height="408.69421"
   inkscape:version="1.0 (4035a4f, 2020-05-01)"
   sodipodi:docname="sabohc-logo-1.svg"
   xml:space="preserve"
   enable-background="new 0 0 438 560"
   viewBox="0 0 384.92413 408.69421"
   height="75"
   y="0px"
   x="0px"
   id="Layer_1"
   version="1.1"><metadata
   id="metadata342"><rdf:RDF><cc:Work
       rdf:about=""><dc:format>image/svg+xml</dc:format><dc:type
         rdf:resource="http://purl.org/dc/dcmitype/StillImage" /></cc:Work></rdf:RDF></metadata><defs
   id="defs340" /><sodipodi:namedview
   inkscape:current-layer="Layer_1"
   inkscape:window-maximized="0"
   inkscape:window-y="0"
   inkscape:window-x="0"
   inkscape:cy="244.73594"
   inkscape:cx="96.625163"
   inkscape:zoom="1.3125"
   showgrid="false"
   id="namedview338"
   inkscape:window-height="1050"
   inkscape:window-width="1680"
   inkscape:pageshadow="2"
   inkscape:pageopacity="0"
   guidetolerance="10"
   gridtolerance="10"
   objecttolerance="10"
   borderopacity="1"
   bordercolor="#666666"
   pagecolor="#ffffff" />

<path
   style="stroke-width:1.03123"
   id="path223"
   d="m 164.86241,16.6117 c 7.7866,-5.136803 15.26254,-10.06955 22.73689,-15.004996 3.1026,-2.04869198 6.40002,-2.16773598 9.40562,-0.186932 18.47817,12.177846 36.99546,24.290711 55.07535,37.141152 6.47833,4.604541 9.96112,10.649539 9.42929,19.084216 -0.076,1.204946 0.17899,2.433478 0.32538,4.184505 9.56162,-3.127824 18.86993,-6.148185 28.16391,-9.217673 28.14624,-9.295735 56.2858,-18.614384 84.431,-27.913726 4.27237,-1.411631 8.84103,0.572178 9.89023,4.242532 1.64673,5.760972 -0.091,10.321344 -4.99753,12.022027 -13.0665,4.529078 -26.17804,8.913189 -39.29733,13.267573 -25.45642,8.449187 -50.9375,16.814457 -76.39047,25.275425 -4.44263,1.476802 -8.81531,3.155692 -13.58063,2.716701 -2.48691,-0.229091 -3.79267,0.808371 -3.57035,3.628562 0.0832,1.05527 0.001,2.12503 -9.7e-4,3.18819 -0.0184,8.83499 -0.01,8.67836 8.41208,9.1806 6.52389,0.38905 12.4545,3.509294 18.58987,5.511064 34.50824,11.25891 68.91568,22.86743 103.35758,34.35632 0.79232,0.2643 1.6138,0.45464 2.37417,0.79836 4.44498,2.0094 6.46936,6.75323 4.86649,11.32607 -1.41785,4.04502 -5.43741,6.23876 -9.78757,4.84181 -14.09973,-4.52772 -28.14825,-9.23579 -42.21768,-13.87036 -21.9867,-7.24264 -44.00815,-14.36952 -65.93228,-21.82023 -4.24652,-1.44315 -4.99393,0.0433 -4.66993,3.94434 0.9285,11.17967 -3.84506,18.62356 -13.46472,22.66181 -2.56595,1.07717 -2.38922,2.49697 -1.85516,4.94103 5.94852,27.22205 11.72162,54.48735 17.59714,81.72756 3.90997,18.12739 7.42099,36.37415 12.00573,54.30867 4.53861,17.75401 7.15281,35.95796 11.79966,53.64532 4.97522,18.93724 7.76593,38.38796 12.48037,57.37839 1.56369,6.29866 -2.1726,10.69022 -8.87082,10.70152 -22.82806,0.0385 -45.65625,0.0163 -68.48437,0.0164 -42.32372,2.9e-4 -84.64741,0.002 -126.971134,-0.002 -9.57562,-9.1e-4 -12.29746,-3.64645 -10.20665,-13.37586 5.07894,-23.63457 9.72025,-47.38423 15.255694,-70.89643 4.53598,-19.2669 8.56595,-38.64726 12.82051,-57.97729 4.81954,-21.89682 9.69054,-43.78091 14.4673,-65.68826 3.61658,-16.5865 7.03662,-33.22208 10.75597,-49.78201 0.62834,-2.79761 0.41553,-3.94095 -2.26953,-5.1419 -8.78783,-3.93046 -13.65389,-10.72084 -13.11873,-21.40214 0.3259,-6.50443 0.0391,-6.51242 -5.4755,-4.69651 -35.423934,11.66492 -70.838714,23.36154 -106.284587,34.95059 -5.4796908,1.79158 -9.6115348,-0.27669 -10.92916281,-4.9073 -1.433815,-5.03893 0.90192001,-9.42706 6.41810001,-11.2666 35.2267718,-11.7474 70.4798058,-23.40575 105.7207898,-35.105 4.43099,-1.47098 8.83091,-3.04847 13.26761,-4.499084 1.88575,-0.61656 3.82875,-1.46042 5.74665,-1.46315 6.59961,-0.009 6.59974,0.11481 6.60168,-6.97378 0.002,-7.823123 -0.0261,-7.53835 -7.22435,-8.346122 -6.61041,-0.7418 -12.74747,-3.690503 -19.05923,-5.771965 C 77.407816,64.870209 42.641676,53.311884 7.8624252,41.798438 0.97808719,39.519418 -1.1943908,35.817015 0.60086119,29.255996 1.7082432,25.208904 6.8470562,23.480578 12.520361,25.355667 c 31.46415,10.399261 62.921275,20.822602 94.379669,31.241537 4.26426,1.412309 8.52259,2.844828 12.78286,4.270719 2.39448,0.801401 4.20079,0.895939 3.81633,-2.794882 -1.02872,-9.875244 4.57856,-15.889769 11.38427,-20.797122 9.75367,-7.033012 19.76583,-13.660585 29.97892,-20.664219 z"
   stroke="none"
   opacity="1"
   fill="#00adb5" />






























<path
   style="fill:#ffffff;stroke-width:1.03123"
   id="path285"
   d="m 153.53703,312.0371 c 32.0229,-16.86926 63.74173,-33.49999 95.33313,-50.40008 3.74063,-2.0011 4.77746,-0.94862 5.54873,2.7089 1.80683,8.5684 3.5517,17.15995 5.68839,25.63755 0.95975,3.80795 -1.3057,4.62406 -3.52942,5.79388 -21.99155,11.56884 -43.99117,23.12032 -65.98514,34.68393 -26.51225,13.93906 -53.01636,27.89568 -79.54698,41.79514 -1.26521,0.66283 -2.45605,1.81533 -4.47513,1.38723 2.95064,-13.1343 5.97258,-26.21642 8.76952,-39.35271 0.54996,-2.58295 2.25775,-3.3092 3.99542,-4.23043 11.27589,-5.97766 22.5706,-11.91515 34.20148,-18.02341 z"
   stroke="none"
   opacity="1"
   fill="#46704D" />
<path
   style="fill:#ffffff;stroke-width:1.03123"
   id="path287"
   d="m 194.74952,385.51454 c -7.54883,5.25943 -15.43886,6.52103 -24.04869,6.30807 -19.1469,-0.47359 -38.31129,-0.14772 -57.55925,-0.14772 -6.2e-4,-2.14746 1.6855,-2.12289 2.67148,-2.64459 43.15555,-22.83365 86.33163,-45.62349 129.52011,-68.38666 5.19986,-2.74064 10.56061,-5.1452 15.69626,-8.01059 2.63794,-1.47187 3.78473,-1.06263 4.44235,2.0313 1.82208,8.57272 3.69071,17.13727 5.73792,25.65151 0.93124,3.87311 -0.99878,5.29997 -3.81571,6.78044 -24.13306,12.68329 -48.21495,25.47658 -72.64447,38.41824 z"
   stroke="none"
   opacity="1"
   fill="#46704D" />
<path
   style="fill:#ffffff;stroke-width:1.03123"
   id="path289"
   d="m 203.87879,228.37621 c 11.63694,-6.21826 23.02848,-12.08012 34.21436,-18.35646 3.50415,-1.96617 4.49103,-0.66531 5.1741,2.62928 1.70758,8.23628 3.20566,16.5366 5.3068,24.65939 1.03772,4.01177 -0.28647,5.52665 -3.39942,7.1612 -35.90961,18.85524 -71.75903,37.84003 -107.62511,56.78905 -5.32089,2.81116 -10.64508,5.61532 -16.91793,8.9239 2.12231,-9.93408 4.74009,-18.82274 5.78141,-27.9155 1.29389,-11.29802 6.44458,-17.31521 16.38881,-21.93394 20.65813,-9.5949 40.54705,-21.06265 61.07698,-31.95692 z"
   stroke="none"
   opacity="1"
   fill="#46704D" />
<path
   style="fill:#ffffff;stroke-width:1.03123"
   id="path291"
   d="m 216.5624,164.19537 c 3.95697,-1.93766 7.58646,-3.67768 11.17023,-5.51837 1.9287,-0.99061 3.22563,-1.47826 3.84471,1.64359 1.84033,9.28014 3.88248,18.51789 6.01965,27.72655 0.52756,2.27301 0.18729,3.46821 -1.85574,4.53642 -33.22836,17.37387 -66.42421,34.81805 -99.63161,52.23724 -0.1331,0.0698 -0.32696,0.009 -1.11592,0.009 2.25125,-10.65647 5.05927,-21.07537 6.50421,-31.70381 1.14106,-8.39321 5.39811,-12.41001 12.16535,-15.83413 21.00772,-10.62953 41.72352,-21.91156 62.89912,-33.09612 z"
   stroke="none"
   opacity="1"
   fill="#46704D" />
<path
   style="fill:#ffffff;stroke-width:1.03123"
   id="path293"
   d="m 208.42838,29.130154 c 11.57908,7.941839 23.41157,14.75942 34.10459,23.449511 2.50339,2.034461 4.07904,8.763014 2.65866,11.371303 -0.85181,1.564184 -2.28915,1.217417 -3.54645,1.218439 -32.77255,0.02652 -65.54509,0.02747 -98.31763,0.0013 -1.57438,-0.0013 -3.76339,0.408899 -3.70445,-2.245264 0.0777,-3.497851 -1.39045,-7.25379 2.32617,-10.140239 8.857,-6.878627 18.39747,-12.597118 27.5687,-18.936572 6.5313,-4.514627 13.21063,-8.786737 19.7523,-13.284854 2.16939,-1.491702 3.9538,-1.805853 6.25396,-0.09909 4.06909,3.019327 8.37474,5.67813 12.90415,8.665479 z"
   stroke="none"
   opacity="1"
   fill="#47704C" />
<path
   style="fill:#ffffff;stroke-width:1.03123"
   id="path295"
   d="m 231.01551,130.05852 c -28.75187,0.008 -57.04948,0.0203 -85.34704,-0.0117 -2.23117,-0.003 -5.25035,0.76951 -5.8481,-2.49453 -0.68857,-3.75993 -0.94959,-7.75369 0.27205,-11.49325 0.40448,-1.2381 2.06457,-0.86036 3.19384,-0.86099 32.79191,-0.0183 65.58384,0.006 98.37565,-0.0534 2.71286,-0.005 4.09671,0.88318 3.82931,3.93692 -0.0922,1.05265 -0.006,2.12267 -0.006,3.18476 -0.005,7.63215 -0.93658,8.66929 -8.14392,7.60601 -2.05878,-0.30372 -3.91885,0.16219 -6.32535,0.18615 z"
   stroke="none"
   opacity="1"
   fill="#47704C" />
<path
   style="fill:#ffffff;stroke-width:1.03123"
   id="path297"
   d="m 217.46916,98.163326 c -19.66349,-5.7e-4 -38.82987,-0.10758 -57.99359,0.0859 -3.95224,0.0399 -5.12734,-1.24639 -5.07987,-5.41548 0.12088,-10.618943 -0.057,-10.621507 10.09996,-10.62132 20.33203,3.65e-4 40.6649,0.102488 60.99539,-0.08597 3.95528,-0.03666 5.12483,1.251906 5.07769,5.4173 -0.12024,10.61709 0.057,10.61937 -10.1017,10.61959 -0.83329,2e-5 -1.66658,10e-6 -2.99788,2e-5 z"
   stroke="none"
   opacity="1"
   fill="#47704C" />
<path
   style="fill:#ffffff;stroke-width:1.03123"
   id="path299"
   d="m 177.48252,147.07594 c 11.48053,-2e-5 22.46111,-2e-5 33.44168,-2e-5 0.12391,0.33632 0.24781,0.67263 0.37171,1.00895 -20.45445,10.87713 -40.90891,21.75423 -62.39231,33.17852 2.42397,-11.49043 4.54604,-21.90638 6.86985,-32.2712 0.4772,-2.1284 2.56257,-1.9008 4.22664,-1.90449 5.66081,-0.0125 11.32167,-0.009 17.48243,-0.0118 z"
   stroke="none"
   opacity="1"
   fill="#46704D" />
<path
   style="fill:#ffffff;stroke-width:1.03123"
   id="path301"
   d="m 281.42286,387.32951 c 0.16709,2.46615 0.84189,4.44562 -2.54172,4.41697 -18.95037,-0.16058 -37.90255,-0.0773 -56.90686,-0.0773 -0.0533,-2.18887 1.67427,-2.1779 2.66553,-2.70715 15.56937,-8.31261 31.22186,-16.45029 46.75058,-24.84705 3.53287,-1.91031 4.75961,-1.42679 5.49042,2.86501 1.14264,6.71079 2.96783,13.29008 4.54205,20.34956 z"
   stroke="none"
   opacity="1"
   fill="#46704D" />

















</svg>
