<svg version="1.1" id="Layer_1" xmlns="http://www.w3.org/2000/svg" xmlns:xlink="http://www.w3.org/1999/xlink" x="0px" y="0px"
	 width="100%" viewBox="0 0 438 560" enable-background="new 0 0 438 560" xml:space="preserve">
<path fill="#fff" opacity="1.000000" stroke="none" 
	d="
M439.000000,166.000000 
	C439.000000,296.499969 438.981232,426.499939 439.094238,556.499817 
	C439.097504,560.249084 438.249786,561.097046 434.500031,561.094116 
	C291.500122,560.982910 148.500153,560.982910 5.500270,561.094055 
	C1.751252,561.096985 0.904073,560.249939 0.906260,556.500122 
	C1.013339,372.833557 1.013325,189.166931 0.906356,5.500385 
	C0.904172,1.751865 1.749434,0.902942 5.499740,0.905859 
	C148.499619,1.017108 291.499603,1.017074 434.499512,0.906001 
	C438.247925,0.903089 439.106720,1.747880 439.096741,5.499820 
	C438.954773,58.832920 439.000000,112.166519 439.000000,166.000000 
z"/>
<path fill="#00ADB5" opacity="1.000000" stroke="none" 
	d="
M192.380096,30.313351 
	C200.166702,25.482988 207.642639,20.844507 215.116989,16.203489 
	C218.219589,14.277013 221.517014,14.165071 224.522614,16.027708 
	C243.000778,27.479076 261.518066,38.869339 279.597961,50.953178 
	C286.076294,55.283031 289.559082,60.967411 289.027252,68.898911 
	C288.951233,70.031975 289.206238,71.187218 289.352631,72.833786 
	C298.914246,69.892555 308.222565,67.052376 317.516541,64.166000 
	C345.662781,55.424809 373.802338,46.662071 401.947540,37.917488 
	C406.219910,36.590069 410.788574,38.455532 411.837769,41.906929 
	C413.484497,47.324226 411.746735,51.612545 406.840240,53.211773 
	C393.773743,57.470665 380.662201,61.593239 367.542908,65.687859 
	C342.086487,73.633003 316.605408,81.499237 291.152435,89.455460 
	C286.709808,90.844162 282.337128,92.422897 277.571808,92.010094 
	C275.084900,91.794670 273.779144,92.770241 274.001465,95.422188 
	C274.084656,96.414513 274.002686,97.420448 274.000488,98.420189 
	C273.982056,106.728119 273.990631,106.580833 282.412567,107.053116 
	C288.936462,107.418953 294.867065,110.353050 301.002441,112.235405 
	C335.510681,122.822655 369.918121,133.738663 404.360016,144.542175 
	C405.152344,144.790710 405.973816,144.969696 406.734192,145.292908 
	C411.179169,147.182434 413.203552,151.643265 411.600677,155.943314 
	C410.182831,159.747025 406.163269,161.809891 401.813110,160.496277 
	C387.713379,156.238663 373.664856,151.811462 359.595428,147.453369 
	C337.608734,140.642792 315.587280,133.941071 293.663147,126.934837 
	C289.416626,125.577782 288.669220,126.975578 288.993225,130.643875 
	C289.921722,141.156616 285.148163,148.156433 275.528503,151.953781 
	C272.962555,152.966690 273.139282,154.301788 273.673340,156.600052 
	C279.621857,182.198151 285.394958,207.836914 291.270477,233.452087 
	C295.180450,250.498077 298.691467,267.656311 303.276215,284.520935 
	C307.814819,301.215820 310.429016,318.333801 315.075867,334.966003 
	C320.051086,352.773529 322.841797,371.063904 327.556244,388.921448 
	C329.119934,394.844360 325.383636,398.973938 318.685425,398.984558 
	C295.857361,399.020752 273.029175,398.999847 250.201050,399.000000 
	C207.877335,399.000275 165.553635,399.002228 123.229919,398.998413 
	C113.654297,398.997559 110.932465,395.569489 113.023270,386.420502 
	C118.102211,364.195862 122.743515,341.863007 128.278961,319.753448 
	C132.814941,301.635925 136.844910,283.411713 141.099472,265.234833 
	C145.919006,244.644287 150.790009,224.065704 155.566772,203.465256 
	C159.183350,187.868240 162.603394,172.225067 166.322739,156.653030 
	C166.951080,154.022308 166.738266,152.947174 164.053207,151.817871 
	C155.265381,148.121887 150.399323,141.736588 150.934479,131.692490 
	C151.260376,125.576088 150.973541,125.568573 145.458984,127.276154 
	C110.035049,138.245193 74.620270,149.244049 39.174397,160.141739 
	C33.694706,161.826447 29.562862,159.881561 28.245234,155.527191 
	C26.811419,150.788864 29.147154,146.662506 34.663334,144.932709 
	C69.890106,133.886108 105.143135,122.923248 140.384125,111.921921 
	C144.815109,110.538696 149.215027,109.055313 153.651733,107.691238 
	C155.537476,107.111465 157.480484,106.317940 159.398376,106.315376 
	C165.997986,106.306572 165.998123,106.423332 166.000061,99.757622 
	C166.002197,92.401192 165.973953,92.668976 158.775711,91.909393 
	C152.165298,91.211845 146.028244,88.439049 139.716476,86.481758 
	C104.925514,75.692963 70.159370,64.824158 35.380119,53.997555 
	C28.495781,51.854492 26.323303,48.372959 28.118555,42.203342 
	C29.225937,38.397682 34.364750,36.772461 40.038055,38.535690 
	C71.502205,48.314575 102.959328,58.116104 134.417725,67.913490 
	C138.681976,69.241547 142.940308,70.588608 147.200577,71.929436 
	C149.595062,72.683029 151.401367,72.771927 151.016907,69.301285 
	C149.988190,60.015156 155.595474,54.359432 162.401184,49.744831 
	C172.154846,43.131378 182.167007,36.899178 192.380096,30.313351 
z"/>
<path fill="#E0DFDE" opacity="1.000000" stroke="none" 
	d="
M170.820709,486.482330 
	C178.047577,486.041199 185.026215,486.025879 192.468643,486.034058 
	C194.302216,486.910278 195.836044,486.297577 197.615814,486.686768 
	C203.380020,488.985138 209.094742,490.775879 211.082977,497.665192 
	C211.741074,499.377899 211.435425,500.792725 211.307159,502.579285 
	C210.769699,504.028778 210.379608,505.083527 209.989944,506.486206 
	C209.138168,508.427002 208.008102,509.757935 206.106842,510.791992 
	C204.395996,511.706726 202.980194,512.469360 201.181641,513.438171 
	C202.736664,514.081726 204.043228,514.735596 205.418747,515.172241 
	C211.443100,517.084656 213.948364,521.738159 213.866913,527.465332 
	C213.780930,533.510620 211.008041,538.443237 205.047897,540.934937 
	C200.048294,543.025146 194.921997,544.295044 189.397781,544.055420 
	C183.607330,543.804260 177.797791,543.993042 171.532761,543.966492 
	C170.335663,543.103027 170.505264,542.074036 170.507263,541.096680 
	C170.544342,523.033875 170.404617,504.970795 170.820709,486.482330 
z"/>
<path fill="#E0DFDE" opacity="1.000000" stroke="none" 
	d="
M329.188049,543.468506 
	C324.958801,543.927673 320.972137,543.958801 316.527740,543.967407 
	C314.757324,535.989685 315.920807,527.969421 315.232422,519.578735 
	C310.986969,519.120605 306.950775,519.075989 302.455017,519.098999 
	C300.808685,527.123535 301.910187,535.134766 301.188477,543.503906 
	C288.067627,544.308655 288.067596,544.308655 288.067596,531.706177 
	C288.067596,518.544067 288.376678,505.371246 287.919556,492.225067 
	C287.729492,486.758575 289.564941,485.240509 294.536438,485.959137 
	C296.332458,486.218811 298.195862,486.012421 300.488464,486.059692 
	C302.229218,493.044495 301.096222,500.059082 301.778870,507.430054 
	C306.031403,507.878540 310.067017,507.923706 314.563232,507.901886 
	C316.125519,500.856140 315.123901,493.822418 315.821472,486.440735 
	C320.056976,486.043060 324.043915,486.031189 328.488159,486.061401 
	C329.662262,486.949280 329.494751,487.975037 329.492859,488.951141 
	C329.457581,506.980896 329.591125,525.010925 329.188049,543.468506 
z"/>
<path fill="#E0DFDE" opacity="1.000000" stroke="none" 
	d="
M272.307678,519.535767 
	C271.110779,524.517273 270.344116,529.070984 268.228424,533.389160 
	C263.390656,543.263184 252.735611,546.962402 243.526413,544.692017 
	C235.862473,542.802551 230.918671,536.450928 228.059021,528.925171 
	C227.657822,527.869324 227.337204,526.782837 226.904602,525.334229 
	C226.189285,523.540100 226.672256,522.022278 226.248169,520.250244 
	C224.732925,510.268005 227.077698,501.450897 231.995270,493.137482 
	C234.615616,488.707642 239.061127,487.056335 243.658295,484.918121 
	C247.361633,484.147797 250.735306,484.620514 254.528641,484.691223 
	C266.308655,488.501984 270.411011,497.451691 272.094116,508.621948 
	C272.850800,512.368347 272.380371,515.742188 272.307678,519.535767 
z"/>
<path fill="#E0DFDE" opacity="1.000000" stroke="none" 
	d="
M143.294739,542.322021 
	C142.994659,540.777161 143.124969,539.572937 142.838715,538.477478 
	C140.882874,530.992737 140.854660,531.000122 132.916122,531.000000 
	C132.583145,531.000000 132.250153,531.000000 131.917175,531.000000 
	C122.340767,531.000000 122.340767,531.000000 120.963638,541.541260 
	C117.523392,544.167786 109.563568,544.160461 106.701195,541.491821 
	C109.890076,531.667603 113.149376,522.350159 115.952278,512.897278 
	C118.529053,504.207123 120.960281,495.477936 124.025223,486.564209 
	C129.340546,484.669312 134.759018,485.828918 140.534012,485.822266 
	C143.632614,499.083710 148.510391,511.460297 152.046341,524.228577 
	C153.724350,530.287903 155.792938,536.239075 157.761215,542.611023 
	C153.054047,543.704590 148.276657,544.086792 143.294739,542.322021 
z"/>
<path fill="#E0DFDE" opacity="1.000000" stroke="none" 
	d="
M81.524475,484.691345 
	C85.153595,486.342804 88.633057,487.089142 91.716301,488.938812 
	C94.396065,490.546417 95.641228,491.410553 93.026314,494.679840 
	C90.300774,498.087433 88.396774,499.349915 84.968246,496.006866 
	C84.252716,495.309204 83.123535,494.585449 81.468658,494.943054 
	C77.939117,494.021484 74.726341,494.668488 71.200188,494.777893 
	C69.662781,494.749634 68.895470,495.428436 68.078278,496.528992 
	C67.132233,498.355804 67.562141,499.983185 67.791443,501.881836 
	C70.517120,506.058441 74.831177,506.701996 78.748184,508.090790 
	C85.918694,510.633179 93.431068,512.747314 96.082672,521.662476 
	C96.856285,524.693726 96.373558,527.406738 96.313736,530.527100 
	C91.105484,542.479858 81.422539,545.384033 69.520020,544.965942 
	C67.694870,544.088989 66.158020,544.702942 64.376282,544.308838 
	C60.596256,542.039673 56.407917,541.679993 53.069347,539.085693 
	C51.036831,537.506287 50.696697,536.720520 52.544834,535.007996 
	C53.495232,534.127258 54.410080,533.099060 54.998161,531.960510 
	C56.033092,529.956848 56.868332,529.930420 58.774967,531.221130 
	C64.014755,534.768311 69.786568,536.440979 76.223694,535.071960 
	C79.827301,534.305603 82.355980,532.334717 82.647232,528.707703 
	C82.903908,525.511108 81.405968,522.984680 78.155258,521.446777 
	C73.157150,519.082153 67.762512,517.854919 62.767803,515.401306 
	C56.647938,512.394958 53.220745,507.725037 53.138821,501.254883 
	C53.051754,494.378479 57.124447,489.716125 63.370762,486.999481 
	C64.995392,486.292847 66.648804,485.652405 68.666000,484.905823 
	C73.042297,484.136414 77.069908,484.633881 81.524475,484.691345 
z"/>
<path fill="#E0DFDE" opacity="1.000000" stroke="none" 
	d="
M343.680481,512.422119 
	C345.480103,499.109283 351.043030,489.178955 364.697723,485.010590 
	C369.032776,484.125061 373.060364,484.640991 377.514984,484.686310 
	C380.486481,485.868439 382.994843,486.962128 385.550354,487.931641 
	C388.975281,489.231018 389.297974,491.161041 386.755646,493.624207 
	C384.617981,495.695374 383.626099,498.474243 378.986115,495.808411 
	C369.684296,490.464081 361.869659,494.664520 358.951813,505.568909 
	C358.008179,507.988037 358.761658,510.153229 358.306458,512.608521 
	C358.115570,513.435852 358.073059,513.892456 358.095032,514.688354 
	C358.879181,517.104492 358.289398,519.261719 358.744781,521.715332 
	C359.848053,532.917908 370.370178,536.642883 378.986755,532.625732 
	C380.827087,531.767822 382.564056,529.721985 384.639130,530.515503 
	C386.981567,531.411255 388.348297,533.914246 389.209961,536.104736 
	C389.939850,537.960327 387.528107,539.069519 386.257202,539.991577 
	C379.676208,544.766418 371.801025,546.785706 364.321594,544.679077 
	C354.521851,541.918884 347.694336,534.866882 345.054291,524.569336 
	C344.489105,522.364929 344.318542,520.059204 343.892120,517.387573 
	C343.276367,515.619507 343.559174,514.209534 343.680481,512.422119 
z"/>
<path fill="#383B44" opacity="1.000000" stroke="none" 
	d="
M170.831070,486.389771 
	C171.049438,505.043884 171.029922,524.031250 171.039673,543.481018 
	C170.133759,542.866089 170.014374,541.557190 170.014801,540.216125 
	C170.020279,523.182251 170.019119,506.148376 170.056564,489.114594 
	C170.058319,488.316986 170.406387,487.520172 170.831070,486.389771 
z"/>
<path fill="#277676" opacity="1.000000" stroke="none" 
	d="
M329.187134,543.571533 
	C328.959900,524.937805 328.974396,505.979156 328.967163,486.562012 
	C329.916107,487.182373 329.984894,488.516449 329.984741,489.858887 
	C329.983154,506.849274 329.983337,523.839661 329.947266,540.830017 
	C329.945557,541.635864 329.609314,542.441101 329.187134,543.571533 
z"/>
<path fill="#383D45" opacity="1.000000" stroke="none" 
	d="
M315.018677,519.623291 
	C317.040924,522.126770 315.776276,525.442993 315.935699,528.579590 
	C316.179749,533.381836 316.006012,538.205383 316.039795,543.482422 
	C313.889923,538.903625 315.405518,533.607727 315.037323,528.441162 
	C314.839661,525.668152 315.009918,522.868896 315.018677,519.623291 
z"/>
<path fill="#216B73" opacity="1.000000" stroke="none" 
	d="
M301.189728,543.573853 
	C301.034790,535.766907 301.121124,527.634399 301.601501,519.334229 
	C301.669189,527.190613 302.690247,535.246216 301.189728,543.573853 
z"/>
<path fill="#383D45" opacity="1.000000" stroke="none" 
	d="
M315.834534,486.389832 
	C315.986572,493.207062 315.903046,500.359161 315.421692,507.673096 
	C315.300171,500.800507 314.322723,493.731903 315.834534,486.389832 
z"/>
<path fill="#216B73" opacity="1.000000" stroke="none" 
	d="
M301.996521,507.375397 
	C299.810547,503.858215 301.424927,499.578735 301.048065,495.455994 
	C300.792908,492.664856 300.993500,489.832062 300.969360,486.559296 
	C303.237518,492.941895 301.431763,499.989380 301.996521,507.375397 
z"/>
<path fill="#383D45" opacity="1.000000" stroke="none" 
	d="
M106.670975,541.336914 
	C107.074921,541.769043 106.952507,542.912415 108.033249,542.885437 
	C112.083115,542.784363 116.187645,543.712830 120.550896,542.131531 
	C117.372772,545.101257 108.561554,544.903809 106.670975,541.336914 
z"/>
<path fill="#383D45" opacity="1.000000" stroke="none" 
	d="
M140.611038,485.834839 
	C135.610916,486.056824 130.277435,486.042450 124.483955,486.107147 
	C129.370819,484.025757 134.828064,484.917572 140.611038,485.834839 
z"/>
<path fill="#383D45" opacity="1.000000" stroke="none" 
	d="
M143.205612,542.288330 
	C147.541443,544.179504 152.329544,542.469849 157.391922,542.989868 
	C152.975159,544.364624 148.128281,545.066895 143.205612,542.288330 
z"/>
<path fill="#383D45" opacity="1.000000" stroke="none" 
	d="
M377.605957,484.633911 
	C373.954254,484.879059 369.951385,484.928070 365.491943,484.907715 
	C369.065063,483.380127 373.160248,483.918610 377.605957,484.633911 
z"/>
<path fill="#383D45" opacity="1.000000" stroke="none" 
	d="
M81.613983,484.640869 
	C77.961159,484.884491 73.956917,484.930145 69.497833,484.902954 
	C73.074631,483.389435 77.168388,483.909515 81.613983,484.640869 
z"/>
<path fill="#383B44" opacity="1.000000" stroke="none" 
	d="
M272.356018,519.627136 
	C272.114471,516.624878 272.069183,513.278320 272.091858,509.480164 
	C273.565918,512.397827 273.119019,515.838074 272.356018,519.627136 
z"/>
<path fill="#383D45" opacity="1.000000" stroke="none" 
	d="
M254.620285,484.642639 
	C251.618530,484.884674 248.272537,484.931000 244.474472,484.909332 
	C247.391220,483.434357 250.831253,483.878876 254.620285,484.642639 
z"/>
<path fill="#315358" opacity="1.000000" stroke="none" 
	d="
M71.325714,494.993896 
	C73.976280,492.918945 77.375854,494.389130 80.868881,494.567993 
	C77.993324,494.949371 74.893074,494.973633 71.325714,494.993896 
z"/>
<path fill="#383D45" opacity="1.000000" stroke="none" 
	d="
M96.361679,530.624634 
	C96.121666,528.273743 96.072701,525.592163 96.091553,522.467346 
	C97.472527,524.724487 97.139771,527.503174 96.361679,530.624634 
z"/>
<path fill="#383B44" opacity="1.000000" stroke="none" 
	d="
M358.955017,521.653564 
	C356.998871,520.236938 358.441528,517.910156 358.091797,515.442932 
	C359.393616,516.973938 358.882507,519.147583 358.955017,521.653564 
z"/>
<path fill="#315358" opacity="1.000000" stroke="none" 
	d="
M206.159485,510.884827 
	C207.001648,509.662537 208.191483,508.380920 209.685852,506.966705 
	C209.651093,508.881744 208.572861,510.284515 206.159485,510.884827 
z"/>
<path fill="#383D45" opacity="1.000000" stroke="none" 
	d="
M358.354309,512.644348 
	C358.182465,510.774384 358.206787,508.569458 358.581970,506.157471 
	C358.805359,508.070099 358.677917,510.189728 358.354309,512.644348 
z"/>
<path fill="#383D45" opacity="1.000000" stroke="none" 
	d="
M64.348236,544.353577 
	C65.585930,544.196289 67.136757,544.230896 68.877594,544.604004 
	C67.598862,544.810120 66.130112,544.677795 64.348236,544.353577 
z"/>
<path fill="#383B44" opacity="1.000000" stroke="none" 
	d="
M211.344879,502.699738 
	C211.114532,501.597198 211.069260,500.220306 211.091888,498.434692 
	C212.146301,499.419800 212.126450,500.898346 211.344879,502.699738 
z"/>
<path fill="#383D45" opacity="1.000000" stroke="none" 
	d="
M226.043640,520.306641 
	C227.792877,521.041870 226.684158,522.765259 226.902710,524.572205 
	C225.894104,523.657410 226.030548,522.156433 226.043640,520.306641 
z"/>
<path fill="#383D45" opacity="1.000000" stroke="none" 
	d="
M197.645248,486.639160 
	C196.409409,486.798035 194.860901,486.766205 193.122437,486.395996 
	C194.399170,486.187866 195.865875,486.318146 197.645248,486.639160 
z"/>
<path fill="#383D45" opacity="1.000000" stroke="none" 
	d="
M67.978485,501.734375 
	C66.234169,500.732849 67.076576,498.944580 67.642708,497.029266 
	C67.975235,498.311035 67.981689,499.799255 67.978485,501.734375 
z"/>
<path fill="#216B73" opacity="1.000000" stroke="none" 
	d="
M343.640686,512.302795 
	C343.864319,513.402344 343.910553,514.779785 343.887451,516.566040 
	C342.872223,515.576965 342.870300,514.102844 343.640686,512.302795 
z"/>
<path fill="#46704D" opacity="1.000000" stroke="none" 
	d="
M181.054718,308.114929 
	C213.077621,292.252014 244.796448,276.613403 276.387848,260.721497 
	C280.128479,258.839783 281.165314,259.829468 281.936584,263.268799 
	C283.743408,271.326050 285.488281,279.405060 287.624969,287.376923 
	C288.584717,290.957703 286.319275,291.725128 284.095551,292.825165 
	C262.104004,303.703857 240.104385,314.566223 218.110413,325.440002 
	C191.598160,338.547516 165.094055,351.671539 138.563431,364.741821 
	C137.298218,365.365112 136.107376,366.448853 134.088303,366.046295 
	C137.038940,353.695526 140.060883,341.393829 142.857819,329.041199 
	C143.407776,326.612335 145.115570,325.929413 146.853241,325.063141 
	C158.129135,319.442078 169.423843,313.858795 181.054718,308.114929 
z"/>
<path fill="#46704D" opacity="1.000000" stroke="none" 
	d="
M222.267212,377.209015 
	C214.718384,382.154694 206.828354,383.341034 198.218521,383.140778 
	C179.071625,382.695435 159.907227,383.001862 140.659271,383.001862 
	C140.658646,380.982513 142.344772,381.005615 143.330750,380.515045 
	C186.486298,359.043549 229.662384,337.613251 272.850861,316.208038 
	C278.050720,313.630890 283.411469,311.369781 288.547119,308.675323 
	C291.185059,307.291260 292.331848,307.676086 292.989471,310.585449 
	C294.811554,318.646759 296.680176,326.700378 298.727386,334.706696 
	C299.658630,338.348755 297.728607,339.690491 294.911682,341.082642 
	C270.778625,353.009308 246.696732,365.039398 222.267212,377.209015 
z"/>
<path fill="#46704D" opacity="1.000000" stroke="none" 
	d="
M231.396484,229.444885 
	C243.033417,223.597580 254.424957,218.085419 265.610840,212.183502 
	C269.114990,210.334625 270.101868,211.557877 270.784943,214.655930 
	C272.492523,222.400864 273.990601,230.206024 276.091736,237.844238 
	C277.129456,241.616684 275.805267,243.041199 272.692322,244.578232 
	C236.782715,262.308655 200.933289,280.160889 165.067215,297.979492 
	C159.746323,300.622955 154.422134,303.259827 148.149277,306.371033 
	C150.271591,297.029572 152.889374,288.671173 153.930695,280.120850 
	C155.224579,269.496826 160.375275,263.838593 170.319504,259.495392 
	C190.977631,250.472885 210.866547,239.689255 231.396484,229.444885 
z"/>
<path fill="#46704D" opacity="1.000000" stroke="none" 
	d="
M244.080093,169.092804 
	C248.037064,167.270737 251.666550,165.634521 255.250320,163.903641 
	C257.179016,162.972122 258.475952,162.513565 259.095032,165.449173 
	C260.935364,174.175705 262.977509,182.862366 265.114685,191.521683 
	C265.642242,193.659088 265.301971,194.782990 263.258942,195.787476 
	C230.030579,212.124893 196.834732,228.528427 163.627335,244.908463 
	C163.494232,244.974106 163.300369,244.916580 162.511414,244.916580 
	C164.762665,234.895828 167.570679,225.098480 169.015625,215.104080 
	C170.156677,207.211578 174.413727,203.434402 181.180969,200.214554 
	C202.188690,190.219131 222.904495,179.610138 244.080093,169.092804 
z"/>
<path fill="#47704C" opacity="1.000000" stroke="none" 
	d="
M235.946075,42.085007 
	C247.525146,49.553070 259.357635,55.963943 270.050659,64.135620 
	C272.554047,66.048714 274.129700,72.375870 272.709320,74.828560 
	C271.857513,76.299431 270.420166,75.973351 269.162872,75.974312 
	C236.390320,75.999252 203.617783,76.000145 170.845245,75.975525 
	C169.270859,75.974342 167.081848,76.360031 167.140793,73.864204 
	C167.218491,70.575020 165.750336,67.043144 169.466965,64.328888 
	C178.323959,57.860611 187.864426,52.483261 197.035660,46.521992 
	C203.566956,42.276688 210.246292,38.259434 216.787964,34.029655 
	C218.957352,32.626942 220.741760,32.331532 223.041916,33.936474 
	C227.111008,36.775681 231.416656,39.275871 235.946075,42.085007 
z"/>
<path fill="#47704C" opacity="1.000000" stroke="none" 
	d="
M258.533203,136.992416 
	C229.781326,136.999512 201.483719,137.011520 173.186157,136.981400 
	C170.954987,136.979019 167.935806,137.705002 167.338058,134.635681 
	C166.649490,131.100052 166.388474,127.344551 167.610107,123.828072 
	C168.014587,122.663834 169.674683,123.019043 170.803955,123.018448 
	C203.595856,123.001244 236.387787,123.024124 269.179596,122.968269 
	C271.892456,122.963646 273.276306,123.798759 273.008911,126.670326 
	C272.916748,127.660187 273.003113,128.666367 273.002472,129.665100 
	C272.997955,136.841949 272.065887,137.817215 264.858551,136.817368 
	C262.799774,136.531769 260.939697,136.969879 258.533203,136.992416 
z"/>
<path fill="#47704C" opacity="1.000000" stroke="none" 
	d="
M244.986847,106.999954 
	C225.323364,106.999420 206.156982,106.898788 186.993256,107.080688 
	C183.041016,107.118202 181.865921,105.908661 181.913391,101.988281 
	C182.034271,92.002815 181.856445,92.000404 192.013351,92.000580 
	C212.345383,92.000923 232.678253,92.096954 253.008743,91.919739 
	C256.964020,91.885269 258.133575,93.096962 258.086426,97.013863 
	C257.966187,106.997589 258.143402,106.999725 247.984726,106.999939 
	C247.151443,106.999954 246.318146,106.999947 244.986847,106.999954 
z"/>
<path fill="#46704D" opacity="1.000000" stroke="none" 
	d="
M205.000214,152.994644 
	C216.480743,152.994629 227.461319,152.994629 238.441895,152.994629 
	C238.565796,153.310883 238.689697,153.627136 238.813599,153.943390 
	C218.359146,164.171631 197.904694,174.399857 176.421295,185.142624 
	C178.845261,174.337662 180.967331,164.543076 183.291138,154.796585 
	C183.768341,152.795151 185.853714,153.009171 187.517776,153.005707 
	C193.178589,152.993912 198.839447,152.997147 205.000214,152.994644 
z"/>
<path fill="#46704D" opacity="1.000000" stroke="none" 
	d="
M308.940552,378.915710 
	C309.107635,381.234741 309.782440,383.096130 306.398834,383.069183 
	C287.448456,382.918182 268.496277,382.996460 249.491974,382.996460 
	C249.438721,380.938171 251.166245,380.948486 252.157501,380.450806 
	C267.726868,372.634094 283.379364,364.981873 298.908081,357.086029 
	C302.440948,355.289673 303.667694,355.744354 304.398499,359.780121 
	C305.541138,366.090576 307.366333,372.277374 308.940552,378.915710 
z"/>
<path fill="#456D4D" opacity="1.000000" stroke="none" 
	d="
M190.648132,518.746765 
	C192.579239,519.010925 194.098602,519.081848 195.816437,519.477173 
	C196.878510,520.732727 198.087204,521.328125 198.920959,522.732178 
	C201.575485,530.219910 199.201996,533.823425 191.468262,534.033508 
	C189.320633,534.886353 187.483810,534.371765 185.282440,534.249084 
	C184.874710,534.047485 184.953064,534.046204 184.953094,534.085388 
	C183.968414,529.357849 184.705002,524.543335 184.753876,519.314514 
	C184.952972,518.875549 184.952881,518.953918 184.913727,518.953247 
	C186.607834,518.094116 188.445267,518.635193 190.648132,518.746765 
z"/>
<path fill="#456D4D" opacity="1.000000" stroke="none" 
	d="
M189.676147,495.755493 
	C192.884903,495.953186 195.921417,495.457245 197.023697,499.547607 
	C197.853638,501.307770 197.391449,502.811310 197.247070,504.663177 
	C196.773773,508.323242 194.240677,508.725372 191.809952,508.976959 
	C189.847244,509.180115 187.843216,508.984161 185.413361,508.899445 
	C183.969101,504.826935 184.708969,500.760345 184.752930,496.299927 
	C184.953094,495.875214 184.961700,495.945496 184.926422,495.948486 
	C186.292404,495.152954 187.807724,495.606201 189.676147,495.755493 
z"/>
<path fill="#383D45" opacity="1.000000" stroke="none" 
	d="
M184.591156,519.122559 
	C184.957916,523.641296 184.962845,528.407104 184.960449,533.648682 
	C182.919418,529.294189 184.312637,524.295654 184.591156,519.122559 
z"/>
<path fill="#383D45" opacity="1.000000" stroke="none" 
	d="
M184.593231,496.119080 
	C184.961502,499.892303 184.969910,503.909363 184.973755,508.380066 
	C182.962097,504.780701 184.308624,500.529846 184.593231,496.119080 
z"/>
<path fill="#383D45" opacity="1.000000" stroke="none" 
	d="
M190.870728,518.601074 
	C189.293839,518.949036 187.527802,518.958069 185.318146,518.959839 
	C186.624832,517.163147 188.704636,518.145203 190.870728,518.601074 
z"/>
<path fill="#383D45" opacity="1.000000" stroke="none" 
	d="
M185.080215,534.382263 
	C186.643341,534.043030 188.411972,534.038574 190.620239,534.047119 
	C189.312424,535.836731 187.252350,534.866211 185.080215,534.382263 
z"/>
<path fill="#315358" opacity="1.000000" stroke="none" 
	d="
M199.104919,522.584778 
	C197.944489,522.390808 197.001389,521.533875 196.171478,520.089233 
	C197.500168,520.020630 198.768814,520.508728 199.104919,522.584778 
z"/>
<path fill="#383D45" opacity="1.000000" stroke="none" 
	d="
M189.899811,495.626465 
	C188.637238,495.965240 187.198975,495.971344 185.325928,495.964478 
	C186.302307,494.263885 188.056747,495.098755 189.899811,495.626465 
z"/>
<path fill="#383D45" opacity="1.000000" stroke="none" 
	d="
M197.380096,504.888245 
	C197.036957,503.633118 197.027130,502.206299 197.029282,500.351440 
	C198.764267,501.310913 197.881622,503.063843 197.380096,504.888245 
z"/>
<path fill="#466E4C" opacity="1.000000" stroke="none" 
	d="
M240.745392,504.342163 
	C241.338333,496.412933 244.483902,493.332245 251.549713,494.041595 
	C254.481140,494.335907 255.973770,497.018768 256.686127,499.429993 
	C257.500336,502.185883 258.422089,505.077118 258.033203,508.512329 
	C258.960510,512.330750 258.339478,515.781067 258.251953,519.633240 
	C257.862762,522.478943 257.873352,524.843750 257.145294,527.282654 
	C255.577850,532.533264 252.507950,536.104187 248.803665,535.954773 
	C244.663544,535.787781 241.646408,531.887329 240.966095,525.458374 
	C240.093964,523.377563 240.672836,521.576660 240.500031,519.395874 
	C240.500031,516.290894 240.500031,513.629028 240.500031,510.522827 
	C240.519333,508.300018 240.453629,506.520691 240.745392,504.342163 
z"/>
<path fill="#383D45" opacity="1.000000" stroke="none" 
	d="
M258.418976,519.838623 
	C258.049927,516.662354 258.040894,513.262268 258.045410,509.399933 
	C259.994171,512.382385 258.705841,516.044556 258.418976,519.838623 
z"/>
<path fill="#277676" opacity="1.000000" stroke="none" 
	d="
M240.771500,509.679993 
	C240.967819,512.712158 240.973312,515.394104 240.970566,518.522888 
	C240.835175,519.203247 240.708038,519.436768 240.366638,519.333923 
	C240.105499,516.296082 240.058609,513.594666 240.082062,510.447937 
	C240.295166,509.778381 240.437927,509.554077 240.771500,509.679993 
z"/>
<path fill="#383B44" opacity="1.000000" stroke="none" 
	d="
M240.087799,519.403076 
	C240.152390,518.997498 240.557648,518.981567 240.759979,518.975647 
	C240.963486,520.710693 240.964676,522.451660 240.952332,524.625732 
	C239.151077,523.567261 240.354126,521.554199 240.087799,519.403076 
z"/>
<path fill="#383B44" opacity="1.000000" stroke="none" 
	d="
M240.970917,509.594116 
	C240.962311,510.030182 240.557266,510.018555 240.354828,510.010620 
	C240.183426,508.116577 240.214447,506.230530 240.591995,504.142914 
	C240.952179,505.680267 240.965851,507.419128 240.970917,509.594116 
z"/>
<path fill="#436C4F" opacity="1.000000" stroke="none" 
	d="
M126.575348,521.236206 
	C126.581627,513.664978 129.095383,506.777802 131.095337,499.359192 
	C131.490753,498.637329 131.873428,498.500732 132.573975,498.758392 
	C134.628326,506.021088 136.990555,512.943542 137.900787,520.615845 
	C134.246552,521.986572 130.599777,521.322937 126.575348,521.236206 
z"/>
<path fill="#383D45" opacity="1.000000" stroke="none" 
	d="
M126.322304,521.422119 
	C129.757782,521.028198 133.347519,521.025757 137.384613,521.026978 
	C134.166580,523.028442 130.269196,521.661499 126.322304,521.422119 
z"/>
<path fill="#383D45" opacity="1.000000" stroke="none" 
	d="
M132.898026,498.588135 
	C132.457947,498.962555 132.091583,498.961731 131.450424,498.962036 
	C131.161728,497.961334 130.372803,496.507996 131.868881,496.210663 
	C133.273499,495.931519 132.868484,497.373474 132.898026,498.588135 
z"/>
</svg>