<svg version="1.1" id="Layer_1" xmlns="http://www.w3.org/2000/svg" xmlns:xlink="http://www.w3.org/1999/xlink" x="0px" y="0px"
	 width="100%" viewBox="0 0 438 560" enable-background="new 0 0 438 560" xml:space="preserve">

<path fill="#00ADB5" opacity="1.000000" stroke="none" 
	d="
M192.380096,30.313351 
	C200.166702,25.482988 207.642639,20.844507 215.116989,16.203489 
	C218.219589,14.277013 221.517014,14.165071 224.522614,16.027708 
	C243.000778,27.479076 261.518066,38.869339 279.597961,50.953178 
	C286.076294,55.283031 289.559082,60.967411 289.027252,68.898911 
	C288.951233,70.031975 289.206238,71.187218 289.352631,72.833786 
	C298.914246,69.892555 308.222565,67.052376 317.516541,64.166000 
	C345.662781,55.424809 373.802338,46.662071 401.947540,37.917488 
	C406.219910,36.590069 410.788574,38.455532 411.837769,41.906929 
	C413.484497,47.324226 411.746735,51.612545 406.840240,53.211773 
	C393.773743,57.470665 380.662201,61.593239 367.542908,65.687859 
	C342.086487,73.633003 316.605408,81.499237 291.152435,89.455460 
	C286.709808,90.844162 282.337128,92.422897 277.571808,92.010094 
	C275.084900,91.794670 273.779144,92.770241 274.001465,95.422188 
	C274.084656,96.414513 274.002686,97.420448 274.000488,98.420189 
	C273.982056,106.728119 273.990631,106.580833 282.412567,107.053116 
	C288.936462,107.418953 294.867065,110.353050 301.002441,112.235405 
	C335.510681,122.822655 369.918121,133.738663 404.360016,144.542175 
	C405.152344,144.790710 405.973816,144.969696 406.734192,145.292908 
	C411.179169,147.182434 413.203552,151.643265 411.600677,155.943314 
	C410.182831,159.747025 406.163269,161.809891 401.813110,160.496277 
	C387.713379,156.238663 373.664856,151.811462 359.595428,147.453369 
	C337.608734,140.642792 315.587280,133.941071 293.663147,126.934837 
	C289.416626,125.577782 288.669220,126.975578 288.993225,130.643875 
	C289.921722,141.156616 285.148163,148.156433 275.528503,151.953781 
	C272.962555,152.966690 273.139282,154.301788 273.673340,156.600052 
	C279.621857,182.198151 285.394958,207.836914 291.270477,233.452087 
	C295.180450,250.498077 298.691467,267.656311 303.276215,284.520935 
	C307.814819,301.215820 310.429016,318.333801 315.075867,334.966003 
	C320.051086,352.773529 322.841797,371.063904 327.556244,388.921448 
	C329.119934,394.844360 325.383636,398.973938 318.685425,398.984558 
	C295.857361,399.020752 273.029175,398.999847 250.201050,399.000000 
	C207.877335,399.000275 165.553635,399.002228 123.229919,398.998413 
	C113.654297,398.997559 110.932465,395.569489 113.023270,386.420502 
	C118.102211,364.195862 122.743515,341.863007 128.278961,319.753448 
	C132.814941,301.635925 136.844910,283.411713 141.099472,265.234833 
	C145.919006,244.644287 150.790009,224.065704 155.566772,203.465256 
	C159.183350,187.868240 162.603394,172.225067 166.322739,156.653030 
	C166.951080,154.022308 166.738266,152.947174 164.053207,151.817871 
	C155.265381,148.121887 150.399323,141.736588 150.934479,131.692490 
	C151.260376,125.576088 150.973541,125.568573 145.458984,127.276154 
	C110.035049,138.245193 74.620270,149.244049 39.174397,160.141739 
	C33.694706,161.826447 29.562862,159.881561 28.245234,155.527191 
	C26.811419,150.788864 29.147154,146.662506 34.663334,144.932709 
	C69.890106,133.886108 105.143135,122.923248 140.384125,111.921921 
	C144.815109,110.538696 149.215027,109.055313 153.651733,107.691238 
	C155.537476,107.111465 157.480484,106.317940 159.398376,106.315376 
	C165.997986,106.306572 165.998123,106.423332 166.000061,99.757622 
	C166.002197,92.401192 165.973953,92.668976 158.775711,91.909393 
	C152.165298,91.211845 146.028244,88.439049 139.716476,86.481758 
	C104.925514,75.692963 70.159370,64.824158 35.380119,53.997555 
	C28.495781,51.854492 26.323303,48.372959 28.118555,42.203342 
	C29.225937,38.397682 34.364750,36.772461 40.038055,38.535690 
	C71.502205,48.314575 102.959328,58.116104 134.417725,67.913490 
	C138.681976,69.241547 142.940308,70.588608 147.200577,71.929436 
	C149.595062,72.683029 151.401367,72.771927 151.016907,69.301285 
	C149.988190,60.015156 155.595474,54.359432 162.401184,49.744831 
	C172.154846,43.131378 182.167007,36.899178 192.380096,30.313351 
z"/>


<path fill="#277676" opacity="1.000000" stroke="none" 
	d="
M329.187134,543.571533 
	C328.959900,524.937805 328.974396,505.979156 328.967163,486.562012 
	C329.916107,487.182373 329.984894,488.516449 329.984741,489.858887 
	C329.983154,506.849274 329.983337,523.839661 329.947266,540.830017 
	C329.945557,541.635864 329.609314,542.441101 329.187134,543.571533 
z"/>

<path fill="#216B73" opacity="1.000000" stroke="none" 
	d="
M301.189728,543.573853 
	C301.034790,535.766907 301.121124,527.634399 301.601501,519.334229 
	C301.669189,527.190613 302.690247,535.246216 301.189728,543.573853 
z"/>

<path fill="#216B73" opacity="1.000000" stroke="none" 
	d="
M301.996521,507.375397 
	C299.810547,503.858215 301.424927,499.578735 301.048065,495.455994 
	C300.792908,492.664856 300.993500,489.832062 300.969360,486.559296 
	C303.237518,492.941895 301.431763,499.989380 301.996521,507.375397 
z"/>

<path fill="#216B73" opacity="1.000000" stroke="none" 
	d="
M343.640686,512.302795 
	C343.864319,513.402344 343.910553,514.779785 343.887451,516.566040 
	C342.872223,515.576965 342.870300,514.102844 343.640686,512.302795 
z"/>
<path fill="#fff" opacity="1.000000" stroke="none" 
	d="
M181.054718,308.114929 
	C213.077621,292.252014 244.796448,276.613403 276.387848,260.721497 
	C280.128479,258.839783 281.165314,259.829468 281.936584,263.268799 
	C283.743408,271.326050 285.488281,279.405060 287.624969,287.376923 
	C288.584717,290.957703 286.319275,291.725128 284.095551,292.825165 
	C262.104004,303.703857 240.104385,314.566223 218.110413,325.440002 
	C191.598160,338.547516 165.094055,351.671539 138.563431,364.741821 
	C137.298218,365.365112 136.107376,366.448853 134.088303,366.046295 
	C137.038940,353.695526 140.060883,341.393829 142.857819,329.041199 
	C143.407776,326.612335 145.115570,325.929413 146.853241,325.063141 
	C158.129135,319.442078 169.423843,313.858795 181.054718,308.114929 
z"/>
<path fill="#fff" opacity="1.000000" stroke="none" 
	d="
M222.267212,377.209015 
	C214.718384,382.154694 206.828354,383.341034 198.218521,383.140778 
	C179.071625,382.695435 159.907227,383.001862 140.659271,383.001862 
	C140.658646,380.982513 142.344772,381.005615 143.330750,380.515045 
	C186.486298,359.043549 229.662384,337.613251 272.850861,316.208038 
	C278.050720,313.630890 283.411469,311.369781 288.547119,308.675323 
	C291.185059,307.291260 292.331848,307.676086 292.989471,310.585449 
	C294.811554,318.646759 296.680176,326.700378 298.727386,334.706696 
	C299.658630,338.348755 297.728607,339.690491 294.911682,341.082642 
	C270.778625,353.009308 246.696732,365.039398 222.267212,377.209015 
z"/>
<path fill="#fff" opacity="1.000000" stroke="none" 
	d="
M231.396484,229.444885 
	C243.033417,223.597580 254.424957,218.085419 265.610840,212.183502 
	C269.114990,210.334625 270.101868,211.557877 270.784943,214.655930 
	C272.492523,222.400864 273.990601,230.206024 276.091736,237.844238 
	C277.129456,241.616684 275.805267,243.041199 272.692322,244.578232 
	C236.782715,262.308655 200.933289,280.160889 165.067215,297.979492 
	C159.746323,300.622955 154.422134,303.259827 148.149277,306.371033 
	C150.271591,297.029572 152.889374,288.671173 153.930695,280.120850 
	C155.224579,269.496826 160.375275,263.838593 170.319504,259.495392 
	C190.977631,250.472885 210.866547,239.689255 231.396484,229.444885 
z"/>
<path fill="#fff" opacity="1.000000" stroke="none" 
	d="
M244.080093,169.092804 
	C248.037064,167.270737 251.666550,165.634521 255.250320,163.903641 
	C257.179016,162.972122 258.475952,162.513565 259.095032,165.449173 
	C260.935364,174.175705 262.977509,182.862366 265.114685,191.521683 
	C265.642242,193.659088 265.301971,194.782990 263.258942,195.787476 
	C230.030579,212.124893 196.834732,228.528427 163.627335,244.908463 
	C163.494232,244.974106 163.300369,244.916580 162.511414,244.916580 
	C164.762665,234.895828 167.570679,225.098480 169.015625,215.104080 
	C170.156677,207.211578 174.413727,203.434402 181.180969,200.214554 
	C202.188690,190.219131 222.904495,179.610138 244.080093,169.092804 
z"/>
<path fill="#fff" opacity="1.000000" stroke="none" 
	d="
M235.946075,42.085007 
	C247.525146,49.553070 259.357635,55.963943 270.050659,64.135620 
	C272.554047,66.048714 274.129700,72.375870 272.709320,74.828560 
	C271.857513,76.299431 270.420166,75.973351 269.162872,75.974312 
	C236.390320,75.999252 203.617783,76.000145 170.845245,75.975525 
	C169.270859,75.974342 167.081848,76.360031 167.140793,73.864204 
	C167.218491,70.575020 165.750336,67.043144 169.466965,64.328888 
	C178.323959,57.860611 187.864426,52.483261 197.035660,46.521992 
	C203.566956,42.276688 210.246292,38.259434 216.787964,34.029655 
	C218.957352,32.626942 220.741760,32.331532 223.041916,33.936474 
	C227.111008,36.775681 231.416656,39.275871 235.946075,42.085007 
z"/>
<path fill="#fff" opacity="1.000000" stroke="none" 
	d="
M258.533203,136.992416 
	C229.781326,136.999512 201.483719,137.011520 173.186157,136.981400 
	C170.954987,136.979019 167.935806,137.705002 167.338058,134.635681 
	C166.649490,131.100052 166.388474,127.344551 167.610107,123.828072 
	C168.014587,122.663834 169.674683,123.019043 170.803955,123.018448 
	C203.595856,123.001244 236.387787,123.024124 269.179596,122.968269 
	C271.892456,122.963646 273.276306,123.798759 273.008911,126.670326 
	C272.916748,127.660187 273.003113,128.666367 273.002472,129.665100 
	C272.997955,136.841949 272.065887,137.817215 264.858551,136.817368 
	C262.799774,136.531769 260.939697,136.969879 258.533203,136.992416 
z"/>
<path fill="#fff" opacity="1.000000" stroke="none" 
	d="
M244.986847,106.999954 
	C225.323364,106.999420 206.156982,106.898788 186.993256,107.080688 
	C183.041016,107.118202 181.865921,105.908661 181.913391,101.988281 
	C182.034271,92.002815 181.856445,92.000404 192.013351,92.000580 
	C212.345383,92.000923 232.678253,92.096954 253.008743,91.919739 
	C256.964020,91.885269 258.133575,93.096962 258.086426,97.013863 
	C257.966187,106.997589 258.143402,106.999725 247.984726,106.999939 
	C247.151443,106.999954 246.318146,106.999947 244.986847,106.999954 
z"/>


<path fill="#277676" opacity="1.000000" stroke="none" 
	d="
M240.771500,509.679993 
	C240.967819,512.712158 240.973312,515.394104 240.970566,518.522888 
	C240.835175,519.203247 240.708038,519.436768 240.366638,519.333923 
	C240.105499,516.296082 240.058609,513.594666 240.082062,510.447937 
	C240.295166,509.778381 240.437927,509.554077 240.771500,509.679993 
z"/>

</svg>