<?xml version="1.0" encoding="utf-8"?>
<!-- Generator: Adobe Illustrator 23.0.0, SVG Export Plug-In . SVG Version: 6.00 Build 0)  -->
<svg version="1.1" id="Layer_1" xmlns="http://www.w3.org/2000/svg" xmlns:xlink="http://www.w3.org/1999/xlink" x="0px" y="0px"
	 viewBox="0 0 1000 1000" style="enable-background:new 0 0 1000 1000;" xml:space="preserve">
<style type="text/css">
	.st0{fill:#9EE600;}
	.st1{fill:#4D4D4F;}
</style>
<g>
	<path class="st0" d="M12.41,513.38c-0.03,0-0.07,0-0.1,0c-2.99-0.06-5.36-2.53-5.31-5.51c1.26-68.18,53.42-123.87,121.33-129.55
		c2.97-0.24,5.58,1.97,5.83,4.94c0.25,2.98-1.96,5.59-4.93,5.84C66.87,394.31,18.96,445.45,17.8,508.08
		C17.75,511.03,15.35,513.38,12.41,513.38"/>
	<path class="st0" d="M80.56,517.66c-0.44,0-0.89-0.03-1.34-0.09c-5.3-0.74-9-5.62-8.26-10.92c4.17-30.17,25.85-54.9,55.25-62.99
		c5.15-1.43,10.48,1.6,11.9,6.76c1.42,5.15-1.61,10.48-6.76,11.9c-21.93,6.05-38.11,24.49-41.22,46.98
		C89.46,514.15,85.32,517.66,80.56,517.66"/>
	<path class="st0" d="M43.37,515.54c-0.12,0-0.24,0-0.36-0.01c-4.18-0.2-7.4-3.74-7.21-7.91c2.42-51.3,41.1-93.41,91.98-100.14
		c4.14-0.54,7.94,2.37,8.49,6.51c0.55,4.14-2.36,7.94-6.51,8.5c-43.61,5.76-76.78,41.87-78.85,85.85
		C50.73,512.38,47.38,515.54,43.37,515.54"/>
	<path class="st1" d="M156.48,585.27c-27.73,0-47.59-21.48-47.59-48.14c0-26.67,19.86-48.49,47.59-48.49
		c22.19,0,39.01,12.52,44.38,33.29h-25.23c-3.22-6.27-10.56-11.63-19.15-11.63c-13.06,0-23.62,12.16-23.62,27.02
		c0,14.5,10.56,26.48,23.62,26.48c8.77,0,16.28-5.36,19.33-11.8h25.23C195.66,572.92,178.85,585.27,156.48,585.27"/>
	<path class="st1" d="M251.33,510.83c-13.06,0-23.62,11.27-23.62,26.48c0,14.68,10.55,25.94,23.62,25.94
		c13.06,0,23.62-11.63,23.62-25.94C274.95,522.64,264.39,510.83,251.33,510.83 M298.57,583.12H276.2v-9.66
		c-6.98,7.69-17,11.63-28.09,11.63c-24.34,0-44.2-21.48-44.2-47.96c0-26.66,19.51-48.49,47.42-48.49
		c27.73,0,47.24,21.83,47.24,48.49V583.12z"/>
	<path class="st1" d="M307.16,449.99h23.8v94.48c0,13.06,5.91,17.72,17.53,17v21.47c-27.01,2.87-41.33-13.24-41.33-38.48V449.99z"/>
	<path class="st1" d="M348.86,449.99h23.81v94.48c0,13.06,5.9,17.72,17.53,17v21.47c-27.03,2.87-41.34-13.24-41.34-38.48V449.99z"/>
	<g>
		<path class="st1" d="M521.49,561.09c-12.51,0-22.71-10.73-22.71-26.29c0-15.91,10.19-27,22.71-27c12.52,0,22.71,11.08,22.71,27
			C544.2,550.37,534.01,561.09,521.49,561.09 M521.49,486.17c-25.57,0-46.31,20.92-46.31,48.46c0,27.54,20.74,48.11,46.31,48.11
			c25.58,0,46.5-20.57,46.5-48.11C567.99,507.09,547.07,486.17,521.49,486.17"/>
		<path class="st1" d="M634.13,542.32c0,10.19-7.51,17.52-17.88,17.52c-15.56,0-17.34-12.34-17.34-17.52V488.5h-23.6v53.11
			c0,24.14,15.2,41.13,40.95,41.13c25.04,0,41.49-17.7,41.49-41.13V488.5h-23.61V542.32z"/>
		<path class="st1" d="M666.12,527.3v53.29h23.61V527.3c0-13.05,10.02-21.1,25.03-18.41v-22.17
			C684.19,482.96,666.12,501.19,666.12,527.3"/>
		<path class="st1" d="M762.84,486.17c-25.03,0-41.48,17.7-41.48,41.13v53.29h23.6v-53.83c0-10.37,7.51-17.53,17.88-17.53
			c15.56,0,17.35,12.33,17.35,17.53v53.83h23.61V527.3C803.8,503.15,788.59,486.17,762.84,486.17"/>
		<path class="st1" d="M834.56,524.43c3.41-10.73,11.98-17.51,22.71-17.51c11.27,0,20.21,6.78,23.07,17.51H834.56z M857.46,486.17
			c-25.93,0-47.22,21.82-47.22,48.46c0,26.65,21.29,48.11,47.22,48.11c22.88,0,39.15-12.69,44.52-31.47h-25.22
			c-3.93,7.32-11.62,10.72-19.49,10.72c-11.08,0-20.04-6.97-23.06-18.24h69.55C907.15,507.27,884.64,486.17,857.46,486.17"/>
		<path class="st1" d="M992.83,488.49h-23.61v53.93c-0.05,10.32-7.36,17.97-17.88,17.97c-15.37,0-17.17-12.88-17.17-18.07v-53.83
			h-23.6v53.83c0,24.15,15.02,40.42,37.56,40.42c8.4,0,15.55-2.86,21.09-7.5v7.68c0,13.06-5.9,17.71-17.52,17v21.46
			c27.01,2.86,41.3-13.24,41.3-38.45v-94.42H992.83z"/>
		<path class="st1" d="M443.01,582.92c0,13.05-5.91,17.71-17.53,16.98v21.47c27.01,2.86,41.31-13.24,41.31-38.44V488.5h-23.78
			V582.92z"/>
	</g>
</g>
</svg>
